# xmcd CD database file
#
# Track frame offsets:
#	150
#	38257
#	75255
#	116649
#	146406
#	189336
#
# Disc length: 3357 seconds
#
# Revision: 0
# Processed by: cddbd v1.5.2PL0 Copyright (c) Steve Scherf et al.
# Submitted via: CDex 1.70beta2
#
DISCID=3a0d1b06
DTITLE=Motif - Facienda [CD3]
DYEAR=2010
DGENRE=Jazz
TTITLE0=Spacewalk
TTITLE1=Allkiis
TTITLE2=What Not
TTITLE3=Death In Tokyo
TTITLE4=Tunnelvision
TTITLE5=Apo Calypso
EXTD=YEAR: 2010
EXTT0=
EXTT1=
EXTT2=
EXTT3=
EXTT4=
EXTT5=
PLAYORDER=
